<?xml version="1.0" encoding="iso-8859-1"?>
<!-- Generator: Adobe Illustrator 25.4.0, SVG Export Plug-In . SVG Version: 6.00 Build 0)  -->
<svg version="1.1" xmlns="http://www.w3.org/2000/svg" xmlns:xlink="http://www.w3.org/1999/xlink" x="0px" y="0px"
	 viewBox="0 0 64 64" style="enable-background:new 0 0 64 64;" xml:space="preserve">
<g id="head-puzzle">
	<g>
		<path style="fill:#122FFF;" d="M59.315,34.749c0,3.393-2.435,3.621-3.745,3.745c-0.304,0.027-0.748,0.068-0.919,0.142
			c0.003,0.015,0,0.035,0,0.062c0,0.245,0.08,0.898,0.142,1.422c0.086,0.692,0.157,1.289,0.157,1.652
			c0,0.996-0.63,1.519-1.132,1.827c0.434,0.411,0.884,0.993,0.884,1.779c0,1.363-1.132,1.951-1.883,2.338
			c-0.18,0.095-0.47,0.245-0.641,0.369c0.446,0.63,1.07,1.723,1.07,3.171c0,3.056-2.134,4.59-3.328,4.59l-7.031-0.012
			c-4.088,0-4.321,2.196-4.401,6.408c-0.012,0.585-0.024,1.176-0.053,1.759l-2.004-0.1c0.03-0.565,0.038-1.132,0.05-1.696
			c0.071-3.733,0.163-8.376,6.411-8.376l7.028,0.012c0.157-0.041,1.321-0.715,1.321-2.583c0-1.132-0.644-1.951-0.887-2.261
			c-0.139-0.177-0.316-0.402-0.316-0.763c0-1.333,1.117-1.912,1.856-2.296c0.319-0.166,0.801-0.414,0.801-0.559
			c-0.024-0.157-0.467-0.505-0.612-0.621c-0.343-0.272-0.73-0.576-0.73-1.141c0-0.94,0.78-1.371,1.2-1.602
			c0.133-0.074,0.358-0.198,0.405-0.263c-0.015-0.222-0.092-0.869-0.154-1.389c-0.083-0.668-0.157-1.297-0.157-1.664
			c0-1.945,1.779-2.113,2.737-2.202c1.321-0.124,1.924-0.18,1.924-1.747c0-1.031-0.73-1.927-1.744-3.165
			c-1.569-1.912-3.609-4.404-4.055-8.979c-0.065-0.627-0.098-1.295-0.092-2.004c0.003-0.449,0.018-0.916,0.05-1.401l1.008-0.068
			l-1.002-0.056c0.355-6.127-3.266-11.873-9.009-14.299c-3.718-1.572-7.56-2.471-11.249-2.713c-0.677-0.047-1.345-0.071-2.007-0.071
			c-5.636-0.006-10.779,1.563-14.385,4.637C9.023,11.571,7.359,17.612,6.883,20.6c-0.183,1.141-0.192,1.835-0.192,1.862
			c0,0.047,0,0.095,0.003,0.142c0.035,7.416,2.926,11.5,5.252,14.79c1.679,2.37,3.127,4.416,3.127,7.037l0.101,19.513l-2.004,0.012
			l-0.101-19.519c0-1.989-1.218-3.709-2.76-5.885c-2.506-3.541-5.624-7.948-5.624-16.093c0-0.402,0.1-9.91,8.837-17.358
			c6.916-5.893,18.863-6.765,29.724-2.172c6.523,2.758,10.634,9.292,10.232,16.262c0,0-0.009,0.139-0.009,0.142
			c-0.399,6.041,1.844,8.781,3.647,10.98C58.246,31.696,59.315,32.999,59.315,34.749z"/>
		<path style="fill:#122FFF;" d="M52.742,20.6v2.004h-8.394c-0.556,0-1.005-0.449-1.005-1.002c0-1.862-1.513-3.378-3.375-3.378
			c-1.862,0-3.378,1.516-3.378,3.378c0,0.502-0.369,0.916-0.851,0.99c-0.047,0.009-0.1,0.012-0.151,0.012h-5.376
			c-0.553,0-1.002-0.449-1.002-1.002v-3.307c-2.492-0.47-4.38-2.657-4.38-5.276c0-2.628,1.889-4.821,4.38-5.29V1.563h2.007v7.076
			c0,0.553-0.449,1.002-1.005,1.002c-1.862,0-3.375,1.516-3.375,3.378c0,1.853,1.513,3.363,3.375,3.363
			c0.508,0,0.925,0.375,0.993,0.863c0.009,0.047,0.012,0.095,0.012,0.142V20.6h3.461c0.473-2.492,2.666-4.38,5.29-4.38
			c2.625,0,4.818,1.889,5.288,4.38H52.742z"/>
		<rect x="29.249" y="0.994" style="fill:#122FFF;" width="2.006" height="0.267"/>
		<rect x="29.21" y="21.602" style="fill:#122FFF;" width="2.006" height="7.87"/>
		<path style="fill:#122FFF;" d="M31.216,44.204H29.21v-6.125c0-0.554,0.449-1.003,1.003-1.003c1.862,0,3.377-1.515,3.377-3.377
			c0-1.862-1.515-3.377-3.377-3.377c-0.554,0-1.003-0.449-1.003-1.003v-7.717h2.006v6.808c2.491,0.471,4.38,2.664,4.38,5.289
			s-1.889,4.818-4.38,5.289V44.204z"/>
		<path style="fill:#C7CAFF;" d="M52.476,19.131l-1.008,0.068c-0.033,0.485-0.047,0.952-0.05,1.401h-6.162
			c-0.47-2.492-2.663-4.38-5.288-4.38c-2.625,0-4.818,1.889-5.29,4.38h-3.461v-3.355h-0.012c-0.068-0.488-0.485-0.863-0.993-0.863
			c-1.862,0-3.375-1.51-3.375-3.363c0-1.862,1.513-3.378,3.375-3.378c0.556,0,1.005-0.449,1.005-1.002V2.063
			c3.689,0.242,7.531,1.141,11.249,2.713c5.743,2.427,9.363,8.172,9.009,14.299L52.476,19.131z"/>
		<rect x="29.21" y="17.246" style="fill:#122FFF;" width="2.007" height="0.142"/>
		<rect x="24.685" y="20.6" style="fill:#122FFF;" width="5.527" height="2.004"/>
		<path style="fill:#C7CAFF;" d="M24.83,13.019c0,2.619,1.889,4.806,4.38,5.276V20.6h-4.525v0.012
			c-0.488,0.068-0.863,0.485-0.863,0.99c0,1.862-1.51,3.378-3.363,3.378c-1.862,0-3.378-1.516-3.378-3.378
			c0-0.553-0.449-1.002-1.002-1.002H6.883c0.476-2.988,2.14-9.029,7.942-13.971c3.606-3.074,8.748-4.643,14.385-4.637v5.737
			C26.718,8.199,24.83,10.392,24.83,13.019z"/>
		<path style="fill:#122FFF;" d="M30.212,20.6v2.004h-4.478c-0.47,2.492-2.657,4.38-5.276,4.38c-2.627,0-4.818-1.889-5.29-4.38
			H5.787V20.6h10.291c0.553,0,1.002,0.449,1.002,1.002c0,1.862,1.516,3.378,3.378,3.378c1.853,0,3.363-1.516,3.363-3.378
			c0-0.505,0.375-0.922,0.863-0.99c0.047-0.009,0.095-0.012,0.142-0.012H30.212z"/>
		<rect x="35.588" y="20.599" style="fill:#122FFF;" width="0.152" height="2.006"/>
	</g>
</g>
<g id="Layer_1">
</g>
</svg>
