<?xml version="1.0" encoding="iso-8859-1"?>
<!-- Generator: Adobe Illustrator 25.4.0, SVG Export Plug-In . SVG Version: 6.00 Build 0)  -->
<svg version="1.1" xmlns="http://www.w3.org/2000/svg" xmlns:xlink="http://www.w3.org/1999/xlink" x="0px" y="0px"
	 viewBox="0 0 64 64" style="enable-background:new 0 0 64 64;" xml:space="preserve">
<g id="mental-health">
	<g>
		<path style="fill:#122FFF;" d="M51.887,17.092c-0.348-1.72-1.467-3.783-3.499-4.234c-1.313-1.885-2.932-3.015-4.817-3.358
			c-2.313-0.426-4.399,0.467-5.477,1.062c-0.933-1.207-3.128-3.456-6.573-3.456c-2.419,0-4.606,1.008-6.153,2.842
			c-1.351,1.599-2.029,3.621-1.862,5.498c-1.999,1.96-2.834,3.93-2.486,5.862c0.382,2.104,2.112,3.626,3.51,4.536
			c-0.423,0.632-0.689,1.594-0.81,2.904c-0.139,1.498,0.477,2.388,1.016,2.87c1.393,1.246,3.809,1.202,5.204,1.047
			c0.013,1.679,0.031,3.337,0.041,3.484c0.018,0.232,0.129,0.446,0.307,0.596c0.157,0.134,0.358,0.206,0.565,0.206
			c0.026,0,0.049,0,0.072-0.003l2.223-0.183c0.245-0.021,0.469-0.139,0.619-0.333l2.976-3.809c0.088-0.113,0.147-0.248,0.17-0.387
			c0.015-0.083,0.09-0.557,0.005-1.251c1.779,0.369,4.443,0.529,6.277-0.413c2.318-1.186,3.389-3.657,3.757-4.729
			c0.97-0.284,2.991-1.039,3.77-2.558c0.304-0.601,0.387-1.256,0.24-1.926C51.884,20.455,52.245,18.866,51.887,17.092z
			 M49.52,20.274c-0.395,0.217-0.56,0.699-0.379,1.114c0.24,0.552,0.126,0.892,0.021,1.099c-0.415,0.815-1.769,1.385-2.607,1.648
			c-0.196,0.062-0.364,0.106-0.485,0.134c-0.32,0.07-0.575,0.32-0.658,0.637c0,0.008-0.044,0.168-0.134,0.423
			c-0.307,0.861-1.163,2.808-2.881,3.69c-1.978,1.013-5.655,0.263-6.305-0.09c-0.328-0.181-0.732-0.132-1.008,0.119
			c-0.276,0.25-0.364,0.65-0.217,0.993c0.322,0.753,0.348,1.403,0.335,1.71l-2.579,3.303l-0.91,0.075
			c-0.01-0.946-0.023-2.437-0.031-3.484c0-0.263-0.121-0.511-0.325-0.673c-0.157-0.129-0.351-0.196-0.549-0.196
			c-0.059,0-0.119,0.005-0.178,0.018c-0.885,0.181-3.654,0.482-4.729-0.48c-0.227-0.201-0.516-0.567-0.438-1.405
			c0.155-1.697,0.529-2.122,0.609-2.2c0.188,0.088,0.307,0.137,0.335,0.15c0.077,0.031,0.157,0.052,0.237,0.059h0.01
			c0.33,0.034,0.663-0.126,0.838-0.428c0.219-0.374,0.132-0.854-0.209-1.127c-0.072-0.059-0.155-0.116-0.248-0.165
			c-0.132-0.075-0.281-0.137-0.444-0.183c-1.044-0.526-3.479-1.955-3.85-4.023c-0.235-1.3,0.407-2.718,1.908-4.216
			c0.119-0.119,0.242-0.24,0.371-0.358c0.217-0.199,0.32-0.495,0.271-0.787c-0.028-0.165-0.046-0.333-0.054-0.503
			c-0.07-1.362,0.469-2.87,1.465-4.049c1.212-1.431,2.922-2.22,4.817-2.22c3.585,0,5.55,3.293,5.568,3.324
			c0.124,0.214,0.335,0.366,0.578,0.418c0.245,0.052,0.498-0.003,0.699-0.15c0.023-0.015,2.37-1.694,4.905-1.227
			c1.289,0.237,2.434,1.001,3.414,2.272c0.157,0.201,0.309,0.415,0.456,0.642c0.142,0.222,0.379,0.366,0.642,0.395
			c0.108,0.01,0.211,0.031,0.312,0.062c1.099,0.309,1.828,1.607,2.079,2.844C50.438,18.75,50.17,19.916,49.52,20.274z"/>
		<path style="fill:#C7CAFF;" d="M50.172,17.438c-0.25-1.238-0.98-2.535-2.079-2.844c-0.663,0.534-2.267,2.019-1.929,3.61
			l-1.712,0.361c-0.482-2.285,1.22-4.178,2.231-5.07c-0.98-1.271-2.125-2.035-3.414-2.272c-2.535-0.467-4.882,1.212-4.905,1.227
			c-0.201,0.147-0.454,0.201-0.699,0.15c-0.242-0.052-0.454-0.204-0.578-0.418c-0.018-0.031-1.983-3.324-5.568-3.324
			c-1.895,0-3.605,0.789-4.817,2.22c-0.995,1.179-1.534,2.687-1.465,4.049c3.706,1.163,4.719-0.949,4.729-0.972l1.594,0.722
			c-0.015,0.031-1.114,2.349-4.296,2.349c-0.75,0-1.619-0.129-2.615-0.451c-1.501,1.498-2.143,2.917-1.908,4.216
			c0.371,2.068,2.806,3.497,3.85,4.023c0.162,0.046,0.312,0.108,0.444,0.183c2.264,0.175,2.602-0.946,2.605-0.957l1.699,0.41
			c-0.023,0.103-0.598,2.316-3.832,2.316c-0.266,0-0.549-0.015-0.854-0.049h-0.01c-0.08-0.008-0.16-0.028-0.237-0.059
			c-0.028-0.013-0.147-0.062-0.335-0.15c-0.08,0.077-0.454,0.503-0.609,2.2c-0.077,0.838,0.211,1.204,0.438,1.405
			c1.075,0.962,3.845,0.66,4.729,0.48c0.059-0.013,0.119-0.018,0.178-0.018c0.199,0,0.392,0.067,0.549,0.196
			c0.204,0.162,0.325,0.41,0.325,0.673c0.008,1.047,0.021,2.538,0.031,3.484l0.91-0.075l2.579-3.303
			c0.013-0.307-0.013-0.957-0.335-1.71c-0.147-0.343-0.059-0.743,0.217-0.993c0.276-0.25,0.681-0.299,1.008-0.119
			c0.65,0.353,4.327,1.104,6.305,0.09c1.717-0.882,2.574-2.829,2.881-3.69c-0.735-0.789-1.449-1.158-2.13-1.111
			c-1.111,0.085-2.068,1.313-2.342,1.779l-1.514-0.879c0.059-0.101,1.454-2.463,3.711-2.646c1.246-0.095,2.434,0.462,3.551,1.663
			c0.838-0.263,2.192-0.833,2.607-1.648c0.106-0.206,0.219-0.547-0.021-1.099c-0.181-0.415-0.015-0.897,0.379-1.114
			C50.17,19.916,50.438,18.75,50.172,17.438z M40.716,19.988h-3.721v3.724h-1.751v-3.724H31.52V18.24h3.724v-3.724h1.751v3.724
			h3.721V19.988z"/>
		<rect x="35.244" y="14.516" style="fill:#122FFF;" width="1.751" height="9.196"/>
		<rect x="31.52" y="18.24" style="fill:#122FFF;" width="9.196" height="1.748"/>
		<path style="fill:#122FFF;" d="M31.561,14.877c-0.015,0.031-1.114,2.349-4.296,2.349c-0.75,0-1.619-0.129-2.615-0.451
			c-0.173-0.054-0.348-0.113-0.526-0.181l0.609-1.64c0.173,0.064,0.343,0.121,0.505,0.173c3.706,1.163,4.719-0.949,4.729-0.972
			L31.561,14.877z"/>
		<path style="fill:#122FFF;" d="M46.936,24.568l-1.354,1.109c-0.103-0.124-0.204-0.24-0.304-0.348
			c-0.735-0.789-1.449-1.158-2.13-1.111c-1.111,0.085-2.068,1.313-2.342,1.779l-1.514-0.879c0.059-0.101,1.454-2.463,3.711-2.646
			c1.246-0.095,2.434,0.462,3.551,1.663C46.686,24.271,46.809,24.416,46.936,24.568z"/>
		<path style="fill:#122FFF;" d="M31.339,24.65c-0.023,0.103-0.598,2.316-3.832,2.316c-0.266,0-0.549-0.015-0.854-0.049h-0.01
			l0.188-1.741c0.07,0.008,0.137,0.013,0.204,0.021c2.264,0.175,2.602-0.946,2.605-0.957L31.339,24.65z"/>
		<path style="fill:#122FFF;" d="M48.37,14.382c0,0,0,0-0.003,0c-0.013,0.01-0.116,0.085-0.273,0.211
			c-0.663,0.534-2.267,2.019-1.929,3.61l-1.712,0.361c-0.482-2.285,1.22-4.178,2.231-5.07c0.376-0.335,0.658-0.529,0.696-0.557
			l0.658,0.962L48.37,14.382z"/>
		<path style="fill:#122FFF;" d="M19.006,38.076c-2.249-3.728-5.047-8.369-5.047-15.569c0-0.081,0.006-0.161,0.006-0.242
			c-0.567,0.175-1.155,0.297-1.753,0.391c0.038,7.599,2.95,12.435,5.296,16.324c1.493,2.476,2.673,4.431,2.673,6.38l0.096,18.561
			l1.75-0.009L21.93,45.355C21.93,42.924,20.575,40.677,19.006,38.076z"/>
		<path style="fill:#122FFF;" d="M62.302,32.496c-1.595-1.977-3.779-4.684-3.859-12.868c0-12.554-7.46-19.189-21.574-19.189
			c-5.878,0-11.148,1.663-15.295,4.513c0.257,0.543,0.486,1.101,0.664,1.683c3.914-2.803,8.97-4.446,14.632-4.446
			c13.154,0,19.824,5.867,19.824,17.448c0.086,8.801,2.59,11.905,4.247,13.959c0.885,1.096,1.31,1.663,1.31,2.553
			c0,1.562-0.636,1.622-1.903,1.74c-0.884,0.083-2.532,0.237-2.532,2.015c0,0.343,0.072,0.94,0.149,1.572
			c0.063,0.523,0.135,1.116,0.134,1.375c-0.039,0.068-0.282,0.203-0.412,0.275c-0.412,0.227-1.101,0.607-1.101,1.454
			c0,0.499,0.353,0.777,0.664,1.023c0.152,0.12,0.613,0.484,0.613,0.652c0,0.171-0.333,0.357-0.803,0.6
			c-0.686,0.356-1.723,0.893-1.723,2.114c0,0.317,0.157,0.517,0.283,0.677c0.235,0.3,0.86,1.094,0.86,2.2
			c0,1.853-1.194,2.502-1.334,2.533l-6.685-0.011c-5.864,0-5.949,4.373-6.016,7.887c-0.01,0.538-0.021,1.08-0.048,1.616l1.748,0.089
			c0.028-0.555,0.039-1.115,0.05-1.671c0.079-4.055,0.304-6.171,4.265-6.171l6.685,0.011c1.077,0,3.085-1.471,3.085-4.283
			c0-1.401-0.623-2.448-1.044-3.029c0.148-0.132,0.435-0.281,0.679-0.408c0.696-0.361,1.748-0.906,1.748-2.154
			c0-0.763-0.469-1.323-0.891-1.704c0.473-0.276,1.128-0.759,1.128-1.726c0-0.338-0.072-0.932-0.148-1.56
			c-0.064-0.527-0.136-1.125-0.136-1.362c0-0.066,0.007-0.102,0.004-0.109c0.133-0.088,0.636-0.135,0.94-0.164
			c1.22-0.114,3.49-0.326,3.49-3.483C64,34.6,63.213,33.625,62.302,32.496z"/>
		<path style="fill:#122FFF;" d="M10.258,20.556C4.602,20.556,0,15.954,0,10.298C0,4.641,4.602,0.039,10.258,0.039
			s10.258,4.602,10.258,10.258C20.516,15.954,15.914,20.556,10.258,20.556z M10.258,1.789c-4.691,0-8.508,3.817-8.508,8.508
			s3.816,8.508,8.508,8.508s8.508-3.816,8.508-8.508S14.95,1.789,10.258,1.789z"/>
		<polygon style="fill:#122FFF;" points="8.368,14.599 5.337,11.567 6.574,10.33 8.368,12.124 13.942,6.55 15.179,7.787 		"/>
	</g>
</g>
<g id="Layer_1">
</g>
</svg>
